<svg xmlns="http://www.w3.org/2000/svg" width="16" height="16.547" viewBox="0 0 16 16.547"><defs><style>.a{fill:#ffffff;}</style></defs><path class="a" d="M8,0A8.15,8.15,0,0,0,0,8.274a8.15,8.15,0,0,0,8,8.274,8.15,8.15,0,0,0,8-8.274A8.15,8.15,0,0,0,8,0ZM8,15.513A7.131,7.131,0,0,1,1,8.274,7.131,7.131,0,0,1,8,1.034a7.131,7.131,0,0,1,7,7.239,7.131,7.131,0,0,1-7,7.239Z" transform="translate(0 0)"/><path class="a" d="M208.828,83.118h-1.034V88.5l3.254,3.254.731-.731-2.951-2.951Z" transform="translate(-200.375 -80.015)"/></svg>