<svg xmlns="http://www.w3.org/2000/svg" width="50" height="48.84" viewBox="0 0 50 48.84"><path d="M49.939,38.875A5.911,5.911,0,0,0,45,33.807V32.252c0-4.289-3.177-7.78-7.083-7.78-3.793,0-6.969,3.386-7.083,7.548h.048l-.048.009V48.877c0,5.386-3.925,9.76-8.75,9.76s-8.75-4.38-8.75-9.76V47.418c1.208,0,2.5-.9,2.5-3.42v-2.15A12.055,12.055,0,0,0,25,30.391V28.608H23.333L23.3,17.481A4.25,4.25,0,0,0,19.87,13.3a2.474,2.474,0,0,0-3.136-1.634,2.566,2.566,0,0,0-1.592,3.217,2.474,2.474,0,0,0,3.136,1.634,2.514,2.514,0,0,0,1.535-1.474,2.556,2.556,0,0,1,1.816,2.447l.037,11.122H20v1.807a6.772,6.772,0,0,1-4.8,6.379,7.4,7.4,0,0,1-4.583,0,6.769,6.769,0,0,1-4.787-6.379V28.608h-2.5V17.494a2.555,2.555,0,0,1,1.85-2.466,2.492,2.492,0,0,0,3.256,1.456,2.6,2.6,0,0,0,1.419-3.341A2.492,2.492,0,0,0,6.6,11.687a2.551,2.551,0,0,0-1.471,1.6,4.245,4.245,0,0,0-3.465,4.2V28.608H0v1.778A12.055,12.055,0,0,0,9.167,41.848V44c0,2.521,1.292,3.42,2.5,3.42v1.459c0,6.327,4.672,11.47,10.417,11.47S32.5,55.2,32.5,48.877V32.069c.083-3.245,2.515-5.885,5.417-5.885,2.987,0,5.417,2.722,5.417,6.07v1.552a5.962,5.962,0,0,0-4.94,6.778A5.859,5.859,0,0,0,45,45.654,5.963,5.963,0,0,0,49.939,38.875ZM17.5,14.929a.855.855,0,1,1,.833-.855A.844.844,0,0,1,17.5,14.929Zm-10-1.71a.855.855,0,1,1-.833.855A.844.844,0,0,1,7.5,13.219ZM1.667,30.387v-.068h2.5v.1a8.465,8.465,0,0,0,5.948,8.005,9.049,9.049,0,0,0,5.6,0,8.466,8.466,0,0,0,5.953-8.005v-.1h1.667v.068a10.4,10.4,0,0,1-8.5,9.954,11.592,11.592,0,0,1-3.516.177,10.628,10.628,0,0,1-1.151-.179A10.4,10.4,0,0,1,1.667,30.387Zm10,15.321c-.75,0-.833-1.2-.833-1.71V42.184c.067.009.135.012.2.019.083.009.167.016.25.024.394.036.792.06,1.192.061h.042c.4,0,.8-.025,1.188-.061.083-.008.172-.015.257-.024.066-.008.134-.01.2-.019V44c0,.513-.083,1.71-.833,1.71ZM44.166,44a4.276,4.276,0,1,1,4.167-4.275A4.222,4.222,0,0,1,44.166,44Z" transform="translate(0 -11.508)"/><g transform="translate(23.019 19.827)"><path d="M407.527,251.515a7.527,7.527,0,1,0,7.527,7.527A7.527,7.527,0,0,0,407.527,251.515Zm0,10.036a2.509,2.509,0,1,1,2.509-2.509A2.509,2.509,0,0,1,407.527,261.551Z" transform="translate(-400 -251.515)"/></g></svg>