<svg xmlns="http://www.w3.org/2000/svg" width="52.715" height="55.652" viewBox="0 0 52.715 55.652"><path d="M74.132,46.957v-26.3a19.988,19.988,0,0,0-6.4-14.587A22.225,22.225,0,0,0,52.359,0,22.51,22.51,0,0,0,40.78,3.183a1.055,1.055,0,0,0-.356,1.5,1.183,1.183,0,0,0,1.581.338A20.128,20.128,0,0,1,52.359,2.174c10.742,0,19.482,8.289,19.482,18.478v26.3H32.877v-26.3a17.664,17.664,0,0,1,3-9.82,1.055,1.055,0,0,0-.356-1.5,1.183,1.183,0,0,0-1.581.338,19.754,19.754,0,0,0-3.357,10.982v26.3A4.476,4.476,0,0,0,26,51.3v3.261a1.118,1.118,0,0,0,1.146,1.087H77.57a1.118,1.118,0,0,0,1.146-1.087V51.3A4.476,4.476,0,0,0,74.132,46.957Zm2.292,6.522H28.293V51.3a2.238,2.238,0,0,1,2.292-2.174H74.132A2.238,2.238,0,0,1,76.424,51.3Z" transform="translate(-26.001 0)"/><path d="M166,353.163v4.649a1.162,1.162,0,0,0,1.162,1.162h18.6a1.162,1.162,0,0,0,1.162-1.162v-4.649A1.162,1.162,0,0,0,185.76,352h-18.6A1.162,1.162,0,0,0,166,353.163Zm2.325,1.162H184.6v2.325H168.326Z" transform="translate(-150.104 -314.092)"/><path d="M236.005,313.162a1.162,1.162,0,0,0,1.162,1.162h6.973a1.162,1.162,0,1,0,0-2.325h-6.973A1.162,1.162,0,0,0,236.005,313.162Z" transform="translate(-212.011 -278.182)"/><path d="M198.33,313.162A1.162,1.162,0,0,0,197.168,312h0a1.162,1.162,0,1,0,1.163,1.162Z" transform="translate(-176.535 -278.182)"/><path d="M119.883,55.043a1.162,1.162,0,1,0-.822-1.984h0a1.162,1.162,0,0,0,.822,1.984Z" transform="translate(-108.102 -46.591)"/><path d="M164.061,156.9a4.035,4.035,0,0,0-4.031-4.031h-2.868A1.162,1.162,0,0,0,156,154.035V163.7a1.162,1.162,0,1,0,2.325,0v-2.763h1.035l1.931,3.344a1.162,1.162,0,0,0,2.013-1.162l-1.5-2.594A4.035,4.035,0,0,0,164.061,156.9Zm-5.737-1.706h1.706a1.706,1.706,0,1,1,0,3.412h-1.706Z" transform="translate(-141.14 -136.547)"/><path d="M247.164,164.859a1.162,1.162,0,0,0,1.162-1.162v-9.662a1.162,1.162,0,1,0-2.325,0V163.7A1.162,1.162,0,0,0,247.164,164.859Z" transform="translate(-220.807 -136.547)"/><path d="M290.677,152.873h-2.868a1.162,1.162,0,0,0-1.162,1.162V163.7a1.162,1.162,0,1,0,2.325,0v-2.763h1.706a4.031,4.031,0,1,0,0-8.061Zm0,5.737h-1.706V155.2h1.706a1.706,1.706,0,1,1,0,3.412Z" transform="translate(-256.852 -136.547)"/><path d="M337.16,236a1.162,1.162,0,1,0,1.163,1.162A1.162,1.162,0,0,0,337.16,236Z" transform="translate(-300.496 -210.417)"/></svg>