<svg xmlns="http://www.w3.org/2000/svg" width="50" height="46.156" viewBox="0 0 50 46.156"><path d="M320.281,292.91a4.1,4.1,0,0,0-3.312,1.683,4.1,4.1,0,0,0-3.314-1.686,3.741,3.741,0,0,0-3.214,1.625,5.488,5.488,0,0,0-.89,3.108c0,5.086,6.7,9.482,6.988,9.667a.791.791,0,0,0,.861,0c.285-.186,6.986-4.61,6.986-9.666C324.385,295.347,322.947,292.91,320.281,292.91Zm-3.315,12.772c-1.417-1.016-5.835-4.474-5.835-8.041,0-.526.122-3.153,2.523-3.153a2.526,2.526,0,0,1,2.523,2.525.791.791,0,0,0,1.581,0,2.525,2.525,0,0,1,2.523-2.522c1.838,0,2.523,1.932,2.523,3.149C322.8,301.185,318.383,304.659,316.967,305.681Z" transform="translate(-279.286 -265.435)"/><path d="M56.568,58.734A12.446,12.446,0,0,0,45.4,65.716l-.329-.1-.931-2.1a8.286,8.286,0,0,0,2.969-5.506c1.5-.4,2.869-2.162,3.42-4.491a2.512,2.512,0,0,0-1.08-2.915,1.822,1.822,0,0,0-.847-.2c.049-.366.1-.814.153-1.365.123-1.284.2-2.582.2-2.911a9.044,9.044,0,0,0-1.782-5.2c-2.187-2.884-5.639-3.489-8.149-3.489-2.469,0-5.9.565-8.225,3.254a8.216,8.216,0,0,0-2.049,5.925c.007.044.046.252.109.563a.738.738,0,0,0,.02.121c0,.006.007.025.015.053.161.784.436,2.046.719,3.09a1.864,1.864,0,0,0-.732.221,2.488,2.488,0,0,0-1.032,2.851c.551,2.333,1.929,4.092,3.427,4.493a8.533,8.533,0,0,0,2.89,5.415l-.993,2.14c-.7.219-1.474.435-2.291.66C25.864,67.615,19,69.515,19,75.833v4.556c0,1.544,1.981,3.2,3.384,3.2h33.67c.17.007.341.011.513.011a12.432,12.432,0,1,0,0-24.864ZM31.913,41.661c1.573-1.82,3.964-2.743,7.108-2.743,3.165,0,5.511.977,6.973,2.9a7.282,7.282,0,0,1,1.162,2.306A9.809,9.809,0,0,0,44.88,42.3a.733.733,0,0,0-1.067.451c-.009.03-.918,2.988-6.655,5.582-2.146.97-3.876,1.162-5.141.568A3.328,3.328,0,0,1,30.3,46.932v0c-.046-.227-.079-.409-.1-.523C29.945,44.616,31.243,42.436,31.913,41.661Zm.771,15.67a.743.743,0,0,0-.738-.709h-.03c-.882,0-2.144-1.375-2.633-3.441-.151-.642.048-1.078.3-1.213.282-.152.583.115.7.238a.738.738,0,0,0,1.14-.932,8.023,8.023,0,0,1-.388-1.224q.158.092.331.175a5.235,5.235,0,0,0,2.282.489,10.175,10.175,0,0,0,4.122-1.035c4.549-2.057,6.378-4.392,7.075-5.643a8.665,8.665,0,0,1,.952.807A4.513,4.513,0,0,1,47.36,48a21.683,21.683,0,0,1-.429,3.3.738.738,0,0,0,1.18.879c.137-.156.4-.4.657-.268.273.141.47.62.319,1.264-.491,2.079-1.766,3.456-2.648,3.441a.739.739,0,0,0-.752.717c-.032.608-.32,3.717-2.857,5.286a6.843,6.843,0,0,1-3.645.916,6.7,6.7,0,0,1-3.636-.936C33.058,61.032,32.725,57.936,32.684,57.332Zm1.691,9.152,1.049-2.262a8.515,8.515,0,0,0,3.762.8,8.732,8.732,0,0,0,3.675-.737l.99,2.23a.738.738,0,0,0,.439.4c.168.057.345.114.535.174q-.177.508-.311,1.036a6.131,6.131,0,0,1-5.328,3.14,5.77,5.77,0,0,1-5.6-4.275l.348-.111A.738.738,0,0,0,34.375,66.484ZM22.384,82.11c-.7,0-1.908-1.094-1.908-1.721V75.833c0-2.308,1.088-4.041,3.436-5.455a30.429,30.429,0,0,1,7.358-2.726l.9-.25a7.262,7.262,0,0,0,7.019,5.335,7.476,7.476,0,0,0,4.954-1.864c0,.1,0,.195,0,.293A12.443,12.443,0,0,0,50.675,82.11Zm34.184.011H56.55a.737.737,0,0,0-.124-.011H56.08a10.945,10.945,0,1,1,.488.011Z" transform="translate(-19 -37.441)"/></svg>