<svg xmlns="http://www.w3.org/2000/svg" width="16.523" height="14.453" viewBox="0 0 16.523 14.453"><defs><style>.a{fill:#ffffff;}</style></defs><g transform="translate(0 -29.539)"><g transform="translate(7.934 37.645)"><rect class="a" width="0.69" height="3.898"/></g><g transform="translate(6.899 41.233)"><path class="a" d="M198.3,363.323a1.38,1.38,0,1,0,1.38,1.38A1.384,1.384,0,0,0,198.3,363.323Zm0,2.035a.69.69,0,1,1,.69-.69A.692.692,0,0,1,198.3,365.358Z" transform="translate(-196.923 -363.323)"/></g><g transform="translate(13.453 35.989)"><rect class="a" width="0.69" height="5.554"/></g><g transform="translate(12.418 41.233)"><path class="a" d="M355.841,363.323a1.38,1.38,0,1,0,1.38,1.38A1.384,1.384,0,0,0,355.841,363.323Zm0,2.035a.69.69,0,1,1,.69-.69A.692.692,0,0,1,355.841,365.358Z" transform="translate(-354.461 -363.323)"/></g><g transform="translate(2.415 37.645)"><rect class="a" width="0.69" height="3.898"/></g><g transform="translate(1.38 41.233)"><path class="a" d="M40.764,363.323a1.38,1.38,0,1,0,1.38,1.38A1.384,1.384,0,0,0,40.764,363.323Zm0,2.035a.69.69,0,1,1,.69-.69A.692.692,0,0,1,40.764,365.358Z" transform="translate(-39.384 -363.323)"/></g><g transform="translate(0 31.16)"><g transform="translate(0 0)"><path class="a" d="M9.762,77.161a2.768,2.768,0,0,0-1.035.207,3.644,3.644,0,0,0-1.518-1.276,3.607,3.607,0,0,0-1.345-.276,3.393,3.393,0,0,0-3.1,2.035,1.293,1.293,0,0,0-.345-.035,2.415,2.415,0,1,0,0,4.829H9.762a2.758,2.758,0,0,0,2.622-1.863,2.382,2.382,0,0,0,.138-.862A2.768,2.768,0,0,0,9.762,77.161Zm1.966,3.38a2.084,2.084,0,0,1-1.966,1.414H2.415a1.725,1.725,0,1,1,0-3.449,1.192,1.192,0,0,1,.448.1l.31.069.1-.31a2.747,2.747,0,0,1,2.587-1.863,2.81,2.81,0,0,1,1.069.207,2.629,2.629,0,0,1,1.345,1.242l.172.31.31-.172a2.044,2.044,0,0,1,3.07,1.794A2.009,2.009,0,0,1,11.728,80.542Z" transform="translate(0 -75.816)"/></g></g><g transform="translate(6.589 29.539)"><path class="a" d="M195.237,30.884a2.768,2.768,0,0,0-1.035.207,3.4,3.4,0,0,0-6,.552l-.138.31.31.138a2.629,2.629,0,0,1,1.345,1.242l.172.31.31-.172a2.044,2.044,0,0,1,3.07,1.794,1.954,1.954,0,0,1-.1.621l-.138.448h2.242A2.68,2.68,0,0,0,198,33.644,2.768,2.768,0,0,0,195.237,30.884Zm.034,4.76h-1.311a1.545,1.545,0,0,0,.035-.414,2.748,2.748,0,0,0-3.794-2.553,3.706,3.706,0,0,0-1.207-1.1,2.729,2.729,0,0,1,2.38-1.414,2.78,2.78,0,0,1,2.415,1.483l.172.31.31-.172a2.063,2.063,0,1,1,1,3.863Z" transform="translate(-188.062 -29.539)"/></g></g></svg>